<?xml version="1.0" encoding="utf-8"?>
<!-- Generator: Adobe Illustrator 18.0.0, SVG Export Plug-In . SVG Version: 6.00 Build 0)  -->
<!DOCTYPE svg PUBLIC "-//W3C//DTD SVG 1.1//EN" "http://www.w3.org/Graphics/SVG/1.1/DTD/svg11.dtd">
<svg version="1.1" id="Layer_1" xmlns="http://www.w3.org/2000/svg"
    xmlns:xlink="http://www.w3.org/1999/xlink" x="0px" y="0px"
    viewBox="0 0 52.8 89.6" enable-background="new 0 0 52.8 89.6" xml:space="preserve">
    <g xmlns="http://www.w3.org/2000/svg" id="_285120032">
        <g>
            <path
                d="M427.1,529.181 C432.788,529.181 435.956,533.573 434.3,538.973 L420.476,582.388 C418.748,587.787 415.94,587.787 414.212,582.388 L400.389,538.973 C398.661,533.573 401.901,529.181 407.589,529.181 L427.1,529.181 z"
                fill="#E2AF7E" />
            <g>
                <g>
                    <path d="M422.132,577.06 L414.932,584.26" fill-opacity="0" stroke="#E6BF95"
                        stroke-width="1.451" />
                    <path d="M426.092,564.676 L412.772,577.924" fill-opacity="0" stroke="#E6BF95"
                        stroke-width="1.451" />
                    <path d="M430.052,552.221 L410.757,571.516" fill-opacity="0" stroke="#E6BF95"
                        stroke-width="1.451" />
                    <path d="M434.012,539.837 L408.741,565.108" fill-opacity="0" stroke="#E6BF95"
                        stroke-width="1.451" />
                    <path d="M433.364,531.989 L406.653,558.7" fill-opacity="0" stroke="#E6BF95"
                        stroke-width="1.451" />
                    <path d="M427.676,529.253 L404.637,552.293" fill-opacity="0" stroke="#E6BF95"
                        stroke-width="1.451" />
                </g>
                <g>
                    <path d="M412.268,576.196 L419.9,583.828" fill-opacity="0" stroke="#E6BF95"
                        stroke-width="1.451" />
                    <path d="M408.309,563.74 L422.06,577.492" fill-opacity="0" stroke="#E6BF95"
                        stroke-width="1.451" />
                    <path d="M404.349,551.357 L424.076,571.084" fill-opacity="0" stroke="#E6BF95"
                        stroke-width="1.451" />
                    <path d="M400.389,538.973 L426.092,564.676" fill-opacity="0" stroke="#E6BF95"
                        stroke-width="1.451" />
                    <path d="M401.613,531.629 L428.18,558.196" fill-opacity="0" stroke="#E6BF95"
                        stroke-width="1.451" />
                    <path d="M407.589,529.182 L430.196,551.789" fill-opacity="0" stroke="#E6BF95"
                        stroke-width="1.451" />
                </g>
            </g>
            <path
                d="M404.565,555.533 L410.757,574.972 L423.86,574.972 L430.052,555.533 C430.052,554.309 429.116,553.301 427.964,553.301 C427.172,553.301 426.524,553.733 426.164,554.381 C425.804,553.733 425.156,553.301 424.364,553.301 C423.572,553.301 422.924,553.733 422.564,554.381 C422.204,553.733 421.556,553.301 420.764,553.301 C419.972,553.301 419.324,553.733 418.964,554.381 C418.604,553.733 417.956,553.301 417.164,553.301 C416.372,553.301 415.724,553.733 415.364,554.381 C415.004,553.733 414.356,553.301 413.564,553.301 C412.772,553.301 412.124,553.733 411.764,554.381 C411.404,553.733 410.757,553.301 409.965,553.301 C409.173,553.301 408.525,553.733 408.165,554.381 C407.805,553.733 407.157,553.301 406.365,553.301 C405.213,553.301 404.421,554.309 404.421,555.533 z"
                fill="#FFFFFF" />
            <g>
                <path d="M408.381,562.156 L408.381,559.492 L409.388,559.492 L409.388,562.156 z"
                    fill="#E8A3AF" />
                <path
                    d="M411.405,560.14 L411.405,561.076 C411.189,561.004 411.044,560.932 410.901,560.932 C410.829,560.932 410.757,560.932 410.685,561.004 C410.613,561.004 410.613,561.076 410.613,561.148 C410.613,561.292 410.757,561.364 410.973,561.364 C411.189,561.364 411.332,561.292 411.477,561.22 L411.477,562.084 C411.26,562.156 411.117,562.156 410.901,562.156 C410.54,562.156 410.253,562.084 410.036,561.868 C409.821,561.652 409.749,561.436 409.749,561.076 C409.749,560.788 409.821,560.5 410.036,560.284 C410.253,560.068 410.469,559.996 410.829,559.996 C411.044,559.996 411.26,560.068 411.548,560.14 z"
                    fill="#E8A3AF" />
                <path
                    d="M413.492,561.364 L413.492,561.724 C413.276,562.012 412.988,562.156 412.556,562.156 C412.197,562.156 411.98,562.084 411.764,561.868 C411.548,561.652 411.477,561.436 411.477,561.076 C411.477,560.788 411.548,560.5 411.764,560.284 C411.98,560.068 412.197,559.996 412.484,559.996 C412.628,559.996 412.772,559.996 412.916,560.068 C413.06,560.14 413.132,560.212 413.276,560.284 C413.348,560.356 413.42,560.5 413.492,560.644 C413.564,560.788 413.564,560.932 413.564,561.148 L412.556,561.148 C412.556,561.22 412.628,561.364 412.7,561.364 C412.772,561.436 412.844,561.436 412.988,561.436 C413.204,561.436 413.348,561.364 413.492,561.22 z M412.484,560.86 L412.484,560.86 L412.916,560.86 C412.916,560.788 412.916,560.644 412.844,560.644 C412.772,560.572 412.772,560.572 412.7,560.572 C412.628,560.572 412.556,560.572 412.556,560.644 C412.484,560.716 412.484,560.788 412.484,560.86 z"
                    fill="#E8A3AF" />
                <path
                    d="M416.804,559.708 L416.372,560.644 C416.228,560.572 416.084,560.572 415.94,560.572 C415.724,560.572 415.58,560.644 415.58,560.788 C415.58,560.86 415.58,560.932 415.652,560.932 C415.724,561.004 415.796,561.004 415.94,561.004 C416.084,561.004 416.228,561.004 416.372,560.932 L416.804,561.94 C416.66,562.012 416.516,562.084 416.372,562.156 C416.228,562.228 416.012,562.228 415.868,562.228 C415.436,562.228 415.148,562.084 414.932,561.868 C414.716,561.58 414.572,561.292 414.572,560.932 C414.572,560.5 414.716,560.212 414.932,559.924 C415.148,559.636 415.508,559.564 415.868,559.564 C416.012,559.564 416.228,559.564 416.372,559.636 C416.516,559.708 416.66,559.78 416.804,559.852 z"
                    fill="#E8A3AF" />
                <path
                    d="M417.812,560.5 C417.956,560.212 418.1,559.996 418.316,559.996 C418.46,559.996 418.532,560.068 418.604,560.14 C418.676,560.212 418.748,560.356 418.748,560.5 C418.748,560.644 418.676,560.788 418.604,560.86 C418.532,560.932 418.388,561.004 418.316,561.004 C418.172,561.004 418.028,560.932 417.956,560.788 C417.884,560.86 417.812,561.076 417.812,561.292 L417.812,562.084 L416.876,562.084 L416.876,559.996 L417.812,559.996 L417.812,560.428 z"
                    fill="#E8A3AF" />
                <path
                    d="M420.692,561.364 L420.692,561.724 C420.476,562.012 420.188,562.156 419.756,562.156 C419.396,562.156 419.18,562.084 418.964,561.868 C418.748,561.652 418.676,561.436 418.676,561.076 C418.676,560.788 418.748,560.5 418.964,560.284 C419.18,560.068 419.396,559.996 419.684,559.996 C419.828,559.996 419.972,559.996 420.116,560.068 C420.26,560.14 420.332,560.212 420.476,560.284 C420.548,560.356 420.62,560.5 420.692,560.644 C420.764,560.788 420.764,560.932 420.764,561.148 L419.756,561.148 C419.756,561.22 419.828,561.364 419.9,561.364 C419.972,561.436 420.044,561.436 420.188,561.436 C420.404,561.436 420.548,561.364 420.692,561.22 z M419.684,560.86 L419.684,560.86 L420.116,560.86 C420.116,560.788 420.116,560.644 420.044,560.644 C419.972,560.572 419.972,560.572 419.9,560.572 C419.828,560.572 419.756,560.572 419.756,560.644 C419.684,560.716 419.684,560.788 419.684,560.86 z"
                    fill="#E8A3AF" />
                <path
                    d="M420.908,560.932 L420.908,560.284 C421.196,560.14 421.484,560.068 421.844,560.068 C422.204,560.068 422.42,560.14 422.564,560.284 C422.708,560.428 422.78,560.644 422.78,561.004 L422.78,562.156 L421.844,562.156 L421.844,562.012 C421.7,562.156 421.556,562.156 421.412,562.156 C421.268,562.156 421.124,562.084 421.052,562.012 C420.98,561.94 420.908,561.796 420.908,561.652 C420.908,561.508 420.98,561.364 421.052,561.22 C421.196,561.076 421.34,561.076 421.484,561.076 C421.628,561.076 421.7,561.076 421.844,561.148 C421.844,561.076 421.844,561.004 421.772,560.932 C421.7,560.86 421.628,560.86 421.484,560.86 C421.34,560.86 421.124,560.932 420.98,561.004 z M421.844,561.724 L421.844,561.724 L421.844,561.436 C421.772,561.436 421.7,561.436 421.7,561.436 C421.628,561.436 421.628,561.436 421.556,561.508 C421.556,561.508 421.484,561.58 421.484,561.652 C421.484,561.724 421.484,561.724 421.556,561.796 C421.628,561.868 421.628,561.868 421.7,561.868 C421.772,561.868 421.844,561.868 421.844,561.796 z"
                    fill="#E8A3AF" />
                <path
                    d="M423.932,560.068 L423.932,560.356 C424.076,560.14 424.292,560.068 424.508,560.068 C424.796,560.068 425.012,560.212 425.084,560.428 C425.156,560.284 425.3,560.212 425.372,560.14 C425.444,560.068 425.588,560.068 425.732,560.068 C425.948,560.068 426.092,560.14 426.236,560.284 C426.38,560.428 426.38,560.644 426.38,560.86 L426.38,562.156 L425.444,562.156 L425.444,560.932 C425.444,560.86 425.444,560.788 425.372,560.788 C425.372,560.716 425.3,560.716 425.228,560.716 C425.156,560.716 425.084,560.716 425.084,560.788 L425.084,562.156 L424.148,562.156 L424.148,560.932 C424.148,560.86 424.148,560.788 424.076,560.788 C424.076,560.716 424.004,560.716 423.932,560.716 C423.86,560.716 423.788,560.716 423.788,560.788 L423.788,562.156 L422.852,562.156 L422.852,560.068 L423.788,560.068 z"
                    fill="#E8A3AF" />
            </g>
            <path d="M409.461,570.724 L409.892,572.236 L424.796,572.236 L425.228,570.724 z"
                fill="#E8A3AF" />
            <path d="M410.396,573.676 L424.292,573.676 L424.58,572.956 L410.108,572.956 z"
                fill="#E8A3AF" />
        </g>
        <g>
            <path
                d="M440.42,535.229 C442.652,531.845 443.732,527.742 443.732,523.35 C443.732,508.734 431.924,496.927 417.308,496.927 C402.693,496.927 390.885,508.734 390.885,523.35 C390.885,528.677 392.397,533.717 395.637,537.389 C397.221,539.189 398.157,541.853 397.725,543.509 C397.221,545.237 399.165,546.389 402.045,544.229 C402.765,548.117 405.285,551.357 409.82,551.861 C413.06,552.221 416.804,549.557 418.028,547.181 C419.252,544.733 420.908,543.581 422.348,546.245 C423.788,548.909 428.18,551.069 431.06,549.413 C433.94,547.685 433.22,544.589 433.004,542.429 C432.788,540.269 434.228,540.989 435.668,542.933 C437.108,544.877 440.132,544.301 439.268,541.493 C438.692,539.405 438.764,537.749 440.348,535.373 z"
                fill="#AF8A75" />
            <path
                d="M426.956,540.557 C411.98,540.557 399.885,528.461 399.885,513.486 C399.885,509.094 400.965,504.918 402.837,501.246 C395.709,505.998 390.957,514.062 390.957,523.278 C390.957,528.605 392.469,533.645 395.709,537.317 C397.293,539.117 398.229,541.781 397.797,543.437 C397.293,545.165 399.237,546.317 402.117,544.157 C402.837,548.045 405.357,551.285 409.893,551.789 C413.132,552.149 416.876,549.485 418.1,547.109 C419.324,544.661 420.98,543.509 422.42,546.173 C423.86,548.837 428.252,550.997 431.132,549.341 C434.012,547.613 433.292,544.517 433.076,542.357 C432.86,540.197 434.3,540.917 435.74,542.861 C437.18,544.805 440.204,544.229 439.34,541.421 C438.98,540.125 438.836,538.973 439.268,537.749 C435.596,539.621 431.42,540.701 426.956,540.701 z"
                fill="#AF8A75" />
            <path
                d="M440.348,524.862 C438.908,523.422 438.404,525.006 437.468,527.526 C436.532,530.045 433.364,529.829 433.22,527.742 C433.076,525.654 432.5,523.998 430.772,524.502 C429.548,524.862 429.548,526.95 427.388,529.109 C425.588,530.909 424.868,529.469 424.22,525.87 C423.716,523.062 422.06,522.198 420.62,522.99 C419.18,523.71 419.324,527.022 419.684,529.757 C420.188,533.645 416.372,534.149 415.22,530.333 C414.14,526.806 413.132,524.142 411.26,526.086 C409.316,528.03 409.82,531.269 407.876,531.557 C405.933,531.773 404.637,529.973 404.349,526.374 C404.205,524.43 400.965,524.43 400.749,526.878 C400.533,529.326 400.893,531.197 398.445,530.477 C395.997,529.757 395.925,526.014 394.413,527.31 C393.693,527.958 392.181,531.485 390.669,529.397 C390.237,527.526 390.021,525.51 390.021,523.35 C390.021,508.23 402.333,495.919 417.452,495.919 C432.572,495.919 444.884,508.23 444.884,523.35 C444.884,525.87 444.524,528.174 443.876,530.405 C441.5,530.333 441.572,526.158 440.42,524.934 z"
                fill="#67380C" />
            <path
                d="M440.132,527.454 C440.132,529.397 439.916,531.197 439.556,532.853 C440.924,530.189 441.716,526.95 441.716,523.278 C441.716,509.886 430.772,498.943 417.38,498.943 C413.924,498.943 410.684,499.663 407.733,500.958 C409.461,500.598 411.26,500.382 413.132,500.382 C428.036,500.382 440.132,512.478 440.132,527.382 z"
                fill="#FFFFFF" fill-opacity="0.8" />
        </g>
        <g>
            <path d="M411.333,508.158 L415.436,505.782" fill-opacity="0" stroke="#F9F02D"
                stroke-width="1.451" />
            <path d="M424.724,503.046 L424.22,507.942" fill-opacity="0" stroke="#4FBAEB"
                stroke-width="1.451" />
            <path d="M419.612,510.966 L423.716,513.27" fill-opacity="0" stroke="#E880B1"
                stroke-width="1.451" />
            <path d="M418.388,499.518 L420.62,503.334" fill-opacity="0" stroke="#E880B1"
                stroke-width="1.451" />
            <path d="M430.34,507.438 L432.644,505.134" fill-opacity="0" stroke="#F9F02D"
                stroke-width="1.451" />
            <path d="M409.677,502.326 L411.404,504.846" fill-opacity="0" stroke="#4FBAEB"
                stroke-width="1.451" />
            <path d="M403.989,509.454 L407.877,510.966" fill-opacity="0" stroke="#89C32D"
                stroke-width="1.451" />
            <path d="M418.82,506.142 L417.596,509.742" fill-opacity="0" stroke="#89C32D"
                stroke-width="1.451" />
            <path d="M426.236,511.254 L429.836,510.246" fill-opacity="0" stroke="#E880B1"
                stroke-width="1.451" />
            <path d="M410.684,510.75 L408.884,513.558" fill-opacity="0" stroke="#4FBAEB"
                stroke-width="1.451" />
            <path d="M426.812,512.766 L426.236,516.078" fill-opacity="0" stroke="#F9F02D"
                stroke-width="1.451" />
            <path d="M413.492,510.966 L414.788,514.062" fill-opacity="0" stroke="#F9F02D"
                stroke-width="1.451" />
        </g>
    </g>
</svg>