<?xml version="1.0" encoding="utf-8"?>
<!-- Generator: Adobe Illustrator 18.0.0, SVG Export Plug-In . SVG Version: 6.00 Build 0)  -->
<!DOCTYPE svg PUBLIC "-//W3C//DTD SVG 1.1//EN" "http://www.w3.org/Graphics/SVG/1.1/DTD/svg11.dtd">
<svg version="1.1" id="Layer_1" xmlns="http://www.w3.org/2000/svg"
    xmlns:xlink="http://www.w3.org/1999/xlink" x="0px" y="0px"
    viewBox="0 0 52.8 89.6" enable-background="new 0 0 52.8 89.6" xml:space="preserve">
    <g xmlns="http://www.w3.org/2000/svg" id="_351503848">
        <g>
            <path
                d="M361.725,178.338 C367.413,178.338 370.581,182.73 368.925,188.129 L355.101,231.544 C353.373,236.944 350.565,236.944 348.837,231.544 L335.013,188.129 C333.285,182.73 336.525,178.338 342.213,178.338 L361.725,178.338 z"
                fill="#E2AF7E" />
            <g>
                <g>
                    <path d="M356.757,226.216 L349.557,233.416" fill-opacity="0" stroke="#E6BF95"
                        stroke-width="1.451" />
                    <path d="M360.717,213.761 L347.397,227.08" fill-opacity="0" stroke="#E6BF95"
                        stroke-width="1.451" />
                    <path d="M364.677,201.377 L345.381,220.672" fill-opacity="0" stroke="#E6BF95"
                        stroke-width="1.451" />
                    <path d="M368.637,188.993 L343.365,214.264" fill-opacity="0" stroke="#E6BF95"
                        stroke-width="1.451" />
                    <path d="M367.989,181.146 L341.277,207.785" fill-opacity="0" stroke="#E6BF95"
                        stroke-width="1.451" />
                    <path d="M362.301,178.338 L339.261,201.377" fill-opacity="0" stroke="#E6BF95"
                        stroke-width="1.451" />
                </g>
                <g>
                    <path d="M346.893,225.28 L354.525,232.984" fill-opacity="0" stroke="#E6BF95"
                        stroke-width="1.451" />
                    <path d="M342.933,212.897 L356.685,226.648" fill-opacity="0" stroke="#E6BF95"
                        stroke-width="1.451" />
                    <path d="M338.973,200.513 L358.701,220.24" fill-opacity="0" stroke="#E6BF95"
                        stroke-width="1.451" />
                    <path d="M335.013,188.057 L360.717,213.761" fill-opacity="0" stroke="#E6BF95"
                        stroke-width="1.451" />
                    <path d="M336.237,180.786 L362.805,207.353" fill-opacity="0" stroke="#E6BF95"
                        stroke-width="1.451" />
                    <path d="M342.213,178.338 L364.821,200.945" fill-opacity="0" stroke="#E6BF95"
                        stroke-width="1.451" />
                </g>
            </g>
            <path
                d="M339.189,204.689 L345.381,224.128 L358.485,224.128 L364.677,204.689 C364.677,203.465 363.741,202.457 362.589,202.457 C361.797,202.457 361.149,202.889 360.789,203.537 C360.429,202.889 359.781,202.457 358.989,202.457 C358.197,202.457 357.549,202.889 357.189,203.537 C356.829,202.889 356.181,202.457 355.389,202.457 C354.597,202.457 353.949,202.889 353.589,203.537 C353.229,202.889 352.581,202.457 351.789,202.457 C350.997,202.457 350.349,202.889 349.989,203.537 C349.629,202.889 348.981,202.457 348.189,202.457 C347.397,202.457 346.749,202.889 346.389,203.537 C346.029,202.889 345.381,202.457 344.589,202.457 C343.797,202.457 343.149,202.889 342.789,203.537 C342.429,202.889 341.781,202.457 340.989,202.457 C339.837,202.457 339.045,203.465 339.045,204.689 z"
                fill="#FFFFFF" />
            <g>
                <path d="M343.005,211.241 L343.005,208.649 L344.013,208.649 L344.013,211.241 z"
                    fill="#E8A3AF" />
                <path
                    d="M346.029,209.297 L346.029,210.233 C345.813,210.161 345.669,210.089 345.525,210.089 C345.453,210.089 345.381,210.089 345.309,210.161 C345.237,210.161 345.237,210.233 345.237,210.305 C345.237,210.449 345.381,210.521 345.597,210.521 C345.813,210.521 345.957,210.449 346.101,210.377 L346.101,211.241 C345.885,211.313 345.741,211.313 345.525,211.313 C345.165,211.313 344.877,211.241 344.661,211.025 C344.445,210.809 344.373,210.593 344.373,210.233 C344.373,209.945 344.445,209.657 344.661,209.441 C344.877,209.225 345.093,209.153 345.453,209.153 C345.669,209.153 345.885,209.225 346.173,209.297 z"
                    fill="#E8A3AF" />
                <path
                    d="M348.117,210.449 L348.117,210.809 C347.901,211.097 347.613,211.241 347.181,211.241 C346.821,211.241 346.605,211.169 346.389,210.953 C346.173,210.737 346.101,210.521 346.101,210.161 C346.101,209.873 346.173,209.585 346.389,209.369 C346.605,209.153 346.821,209.081 347.109,209.081 C347.253,209.081 347.397,209.081 347.541,209.153 C347.685,209.225 347.757,209.297 347.901,209.369 C347.973,209.441 348.045,209.585 348.117,209.729 C348.189,209.873 348.189,210.017 348.189,210.233 L347.181,210.233 C347.181,210.305 347.253,210.449 347.325,210.449 C347.397,210.521 347.469,210.521 347.613,210.521 C347.829,210.521 347.973,210.449 348.117,210.305 z M347.109,209.945 L347.109,209.945 L347.541,209.945 C347.541,209.873 347.541,209.729 347.469,209.729 C347.397,209.657 347.397,209.657 347.325,209.657 C347.253,209.657 347.181,209.657 347.181,209.729 C347.109,209.801 347.109,209.873 347.109,209.945 z"
                    fill="#E8A3AF" />
                <path
                    d="M351.429,208.865 L350.997,209.801 C350.853,209.729 350.709,209.729 350.565,209.729 C350.349,209.729 350.205,209.801 350.205,209.945 C350.205,210.017 350.205,210.089 350.277,210.089 C350.349,210.161 350.421,210.161 350.565,210.161 C350.709,210.161 350.853,210.161 350.997,210.089 L351.429,211.097 C351.285,211.169 351.141,211.241 350.997,211.313 C350.853,211.385 350.637,211.385 350.493,211.385 C350.061,211.385 349.773,211.241 349.557,211.025 C349.341,210.737 349.197,210.449 349.197,210.089 C349.197,209.657 349.341,209.369 349.557,209.081 C349.773,208.793 350.133,208.721 350.493,208.721 C350.637,208.721 350.853,208.721 350.997,208.793 C351.141,208.865 351.285,208.937 351.429,209.009 z"
                    fill="#E8A3AF" />
                <path
                    d="M352.437,209.657 C352.581,209.369 352.725,209.153 352.941,209.153 C353.085,209.153 353.157,209.225 353.229,209.297 C353.301,209.369 353.373,209.513 353.373,209.657 C353.373,209.801 353.301,209.945 353.229,210.017 C353.157,210.089 353.013,210.161 352.941,210.161 C352.797,210.161 352.653,210.089 352.581,209.945 C352.509,210.017 352.437,210.233 352.437,210.449 L352.437,211.241 L351.501,211.241 L351.501,209.153 L352.437,209.153 L352.437,209.585 z"
                    fill="#E8A3AF" />
                <path
                    d="M355.317,210.449 L355.317,210.809 C355.101,211.097 354.813,211.241 354.381,211.241 C354.021,211.241 353.805,211.169 353.589,210.953 C353.373,210.737 353.301,210.521 353.301,210.161 C353.301,209.873 353.373,209.585 353.589,209.369 C353.805,209.153 354.021,209.081 354.309,209.081 C354.453,209.081 354.597,209.081 354.741,209.153 C354.885,209.225 354.957,209.297 355.101,209.369 C355.173,209.441 355.245,209.585 355.317,209.729 C355.389,209.873 355.389,210.017 355.389,210.233 L354.381,210.233 C354.381,210.305 354.453,210.449 354.525,210.449 C354.597,210.521 354.669,210.521 354.813,210.521 C355.029,210.521 355.173,210.449 355.317,210.305 z M354.309,209.945 L354.309,209.945 L354.741,209.945 C354.741,209.873 354.741,209.729 354.669,209.729 C354.597,209.657 354.597,209.657 354.525,209.657 C354.453,209.657 354.381,209.657 354.381,209.729 C354.309,209.801 354.309,209.873 354.309,209.945 z"
                    fill="#E8A3AF" />
                <path
                    d="M355.533,210.017 L355.533,209.369 C355.821,209.225 356.109,209.153 356.469,209.153 C356.829,209.153 357.045,209.225 357.189,209.369 C357.333,209.513 357.405,209.729 357.405,210.089 L357.405,211.241 L356.469,211.241 L356.469,211.097 C356.325,211.241 356.181,211.241 356.037,211.241 C355.893,211.241 355.749,211.169 355.677,211.097 C355.605,211.025 355.533,210.881 355.533,210.737 C355.533,210.593 355.605,210.449 355.677,210.305 C355.821,210.161 355.965,210.161 356.109,210.161 C356.253,210.161 356.325,210.161 356.469,210.233 C356.469,210.161 356.469,210.089 356.397,210.017 C356.325,209.945 356.253,209.945 356.109,209.945 C355.965,209.945 355.749,210.017 355.605,210.089 z M356.469,210.809 L356.469,210.809 L356.469,210.521 C356.397,210.521 356.325,210.521 356.325,210.521 C356.253,210.521 356.253,210.521 356.181,210.593 C356.181,210.593 356.109,210.665 356.109,210.737 C356.109,210.809 356.109,210.809 356.181,210.881 C356.253,210.953 356.253,210.953 356.325,210.953 C356.397,210.953 356.469,210.953 356.469,210.881 z"
                    fill="#E8A3AF" />
                <path
                    d="M358.557,209.225 L358.557,209.513 C358.701,209.297 358.917,209.225 359.133,209.225 C359.421,209.225 359.637,209.369 359.709,209.585 C359.781,209.441 359.925,209.369 359.997,209.297 C360.069,209.225 360.213,209.225 360.357,209.225 C360.573,209.225 360.717,209.297 360.861,209.441 C361.005,209.585 361.005,209.801 361.005,210.017 L361.005,211.313 L360.069,211.313 L360.069,210.089 C360.069,210.017 360.069,209.945 359.997,209.945 C359.997,209.873 359.925,209.873 359.853,209.873 C359.781,209.873 359.709,209.873 359.709,209.945 L359.709,211.313 L358.773,211.313 L358.773,210.089 C358.773,210.017 358.773,209.945 358.701,209.945 C358.701,209.873 358.629,209.873 358.557,209.873 C358.485,209.873 358.413,209.873 358.413,209.945 L358.413,211.313 L357.477,211.313 L357.477,209.225 L358.413,209.225 z"
                    fill="#E8A3AF" />
            </g>
            <path d="M344.085,219.88 L344.517,221.32 L359.421,221.32 L359.853,219.88 z"
                fill="#E8A3AF" />
            <path d="M345.021,222.76 L358.917,222.76 L359.205,222.04 L344.733,222.04 z"
                fill="#E8A3AF" />
        </g>
        <g>
            <path
                d="M328.893,184.314 C326.661,180.93 325.581,176.826 325.581,172.434 C325.581,157.818 337.389,146.011 352.005,146.011 C366.621,146.011 378.429,157.818 378.429,172.434 C378.429,177.762 376.917,182.802 373.677,186.473 C372.093,188.273 371.157,190.937 371.589,192.593 C372.093,194.321 370.149,195.473 367.269,193.313 C366.549,197.201 364.029,200.441 359.565,200.945 C356.325,201.305 352.581,198.641 351.357,196.265 C350.133,193.817 348.477,192.665 347.037,195.329 C345.597,197.993 341.205,200.153 338.325,198.497 C335.445,196.769 336.165,193.673 336.381,191.513 C336.597,189.353 335.157,190.073 333.717,192.017 C332.277,193.961 329.253,193.385 330.117,190.577 C330.693,188.489 330.621,186.833 329.037,184.458 z"
                fill="#D4E257" />
            <path
                d="M346.317,160.842 C346.317,163.218 344.373,165.234 341.925,165.234 C339.549,165.234 337.533,163.29 337.533,160.842 C337.533,158.466 339.477,156.451 341.925,156.451 C344.301,156.451 346.317,158.394 346.317,160.842 z"
                fill="#6EC1C6" />
            <path
                d="M358.701,175.674 C358.701,178.05 356.757,180.066 354.309,180.066 C351.933,180.066 349.917,178.122 349.917,175.674 C349.917,173.298 351.861,171.282 354.309,171.282 C356.685,171.282 358.701,173.226 358.701,175.674 z"
                fill="#E67990" />
            <path
                d="M366.693,164.082 C366.693,166.458 364.749,168.474 362.301,168.474 C359.925,168.474 357.909,166.53 357.909,164.082 C357.909,161.706 359.853,159.69 362.301,159.69 C364.677,159.69 366.693,161.634 366.693,164.082 z"
                fill="#F9ED5B" />
            <path
                d="M361.581,189.713 C346.605,189.713 334.509,177.618 334.509,162.642 C334.509,158.25 335.589,154.075 337.461,150.403 C330.333,155.155 325.581,163.218 325.581,172.434 C325.581,176.826 326.661,181.002 328.893,184.314 C330.477,186.689 330.621,188.345 329.973,190.433 C329.109,193.241 332.133,193.817 333.573,191.873 C335.013,189.929 336.453,189.209 336.237,191.369 C336.021,193.529 335.301,196.697 338.181,198.353 C341.061,200.081 345.453,197.849 346.893,195.185 C348.333,192.521 350.061,193.745 351.213,196.121 C352.437,198.569 356.181,201.161 359.421,200.801 C363.885,200.297 366.405,197.057 367.125,193.169 C370.005,195.329 371.949,194.105 371.445,192.449 C371.013,190.937 371.733,188.705 372.957,186.977 C369.429,188.633 365.541,189.569 361.437,189.569 z"
                fill="#D4E257" fill-opacity="0.502" />
            <path
                d="M374.757,176.538 C374.757,178.482 374.541,180.282 374.181,181.938 C375.549,179.274 376.341,176.034 376.341,172.362 C376.341,158.97 365.397,148.027 352.005,148.027 C348.549,148.027 345.309,148.747 342.357,150.043 C344.085,149.683 345.885,149.467 347.757,149.467 C362.661,149.467 374.757,161.562 374.757,176.466 z"
                fill="#FFFFFF" fill-opacity="0.8" />
        </g>
    </g>
</svg>